<mxfile host="app.diagrams.net" modified="2023-07-31T01:52:34.295Z" agent="Mozilla/5.0 (Windows NT 10.0; Win64; x64) AppleWebKit/537.36 (KHTML, like Gecko) Chrome/115.0.0.0 Safari/537.36" etag="8C7lze1qP2a8HK6JvPyF" version="21.6.6" type="github" pages="2">
  <diagram name="English" id="EDI8gtddxYuzMvr2oFBx">
    <mxGraphModel dx="1434" dy="760" grid="1" gridSize="10" guides="1" tooltips="1" connect="1" arrows="1" fold="1" page="1" pageScale="1" pageWidth="850" pageHeight="1100" math="0" shadow="0">
      <root>
        <mxCell id="WuIyrmQVyQ9rkiY1ifRZ-0" />
        <mxCell id="WuIyrmQVyQ9rkiY1ifRZ-1" parent="WuIyrmQVyQ9rkiY1ifRZ-0" />
        <mxCell id="WuIyrmQVyQ9rkiY1ifRZ-2" value="" style="rounded=0;whiteSpace=wrap;html=1;" vertex="1" parent="WuIyrmQVyQ9rkiY1ifRZ-1">
          <mxGeometry x="571" y="740" width="140" height="140" as="geometry" />
        </mxCell>
        <mxCell id="WuIyrmQVyQ9rkiY1ifRZ-3" value="" style="rounded=0;whiteSpace=wrap;html=1;" vertex="1" parent="WuIyrmQVyQ9rkiY1ifRZ-1">
          <mxGeometry x="482" y="169.05" width="318" height="450.95" as="geometry" />
        </mxCell>
        <mxCell id="WuIyrmQVyQ9rkiY1ifRZ-4" value="" style="rounded=0;whiteSpace=wrap;html=1;direction=south;" vertex="1" parent="WuIyrmQVyQ9rkiY1ifRZ-1">
          <mxGeometry x="500" y="330" width="110" height="248.04" as="geometry" />
        </mxCell>
        <mxCell id="WuIyrmQVyQ9rkiY1ifRZ-5" value="" style="rounded=0;whiteSpace=wrap;html=1;direction=south;" vertex="1" parent="WuIyrmQVyQ9rkiY1ifRZ-1">
          <mxGeometry x="50" y="180" width="330" height="700" as="geometry" />
        </mxCell>
        <mxCell id="WuIyrmQVyQ9rkiY1ifRZ-6" value="" style="rounded=0;whiteSpace=wrap;html=1;rotation=-90;" vertex="1" parent="WuIyrmQVyQ9rkiY1ifRZ-1">
          <mxGeometry x="50" y="338.14" width="428.05" height="150.75" as="geometry" />
        </mxCell>
        <mxCell id="WuIyrmQVyQ9rkiY1ifRZ-7" style="edgeStyle=orthogonalEdgeStyle;rounded=0;orthogonalLoop=1;jettySize=auto;html=1;entryX=1;entryY=0.5;entryDx=0;entryDy=0;exitX=0.5;exitY=1;exitDx=0;exitDy=0;" edge="1" parent="WuIyrmQVyQ9rkiY1ifRZ-1" source="WuIyrmQVyQ9rkiY1ifRZ-8" target="WuIyrmQVyQ9rkiY1ifRZ-36">
          <mxGeometry relative="1" as="geometry">
            <Array as="points">
              <mxPoint x="328" y="460" />
              <mxPoint x="360" y="460" />
              <mxPoint x="360" y="795" />
            </Array>
          </mxGeometry>
        </mxCell>
        <mxCell id="WuIyrmQVyQ9rkiY1ifRZ-8" value="" style="rounded=0;whiteSpace=wrap;html=1;rotation=-90;" vertex="1" parent="WuIyrmQVyQ9rkiY1ifRZ-1">
          <mxGeometry x="142.73" y="394.88" width="243.43" height="126.48" as="geometry" />
        </mxCell>
        <mxCell id="WuIyrmQVyQ9rkiY1ifRZ-10" style="edgeStyle=orthogonalEdgeStyle;rounded=0;orthogonalLoop=1;jettySize=auto;html=1;exitX=1;exitY=0.5;exitDx=0;exitDy=0;" edge="1" parent="WuIyrmQVyQ9rkiY1ifRZ-1" source="WuIyrmQVyQ9rkiY1ifRZ-27" target="WuIyrmQVyQ9rkiY1ifRZ-12">
          <mxGeometry relative="1" as="geometry">
            <Array as="points">
              <mxPoint x="642" y="511" />
              <mxPoint x="642" y="400" />
            </Array>
          </mxGeometry>
        </mxCell>
        <mxCell id="WuIyrmQVyQ9rkiY1ifRZ-11" value="Camera&lt;br&gt;feed" style="edgeLabel;html=1;align=center;verticalAlign=middle;resizable=0;points=[];" vertex="1" connectable="0" parent="WuIyrmQVyQ9rkiY1ifRZ-10">
          <mxGeometry x="0.0756" y="-2" relative="1" as="geometry">
            <mxPoint as="offset" />
          </mxGeometry>
        </mxCell>
        <mxCell id="WuIyrmQVyQ9rkiY1ifRZ-12" value="Website" style="sketch=0;html=1;aspect=fixed;strokeColor=none;shadow=0;fillColor=#3B8DF1;verticalAlign=top;labelPosition=center;verticalLabelPosition=bottom;shape=mxgraph.gcp2.website" vertex="1" parent="WuIyrmQVyQ9rkiY1ifRZ-1">
          <mxGeometry x="690" y="356.05000000000007" width="74.23" height="72" as="geometry" />
        </mxCell>
        <mxCell id="WuIyrmQVyQ9rkiY1ifRZ-13" style="edgeStyle=orthogonalEdgeStyle;rounded=0;orthogonalLoop=1;jettySize=auto;html=1;exitX=0.93;exitY=0.444;exitDx=0;exitDy=0;entryX=1;entryY=0.5;entryDx=0;entryDy=0;exitPerimeter=0;" edge="1" parent="WuIyrmQVyQ9rkiY1ifRZ-1" source="WuIyrmQVyQ9rkiY1ifRZ-12" target="WuIyrmQVyQ9rkiY1ifRZ-15">
          <mxGeometry relative="1" as="geometry">
            <Array as="points">
              <mxPoint x="780" y="388" />
              <mxPoint x="780" y="795" />
            </Array>
          </mxGeometry>
        </mxCell>
        <mxCell id="WuIyrmQVyQ9rkiY1ifRZ-14" value="Recordings&lt;br&gt;access" style="edgeLabel;html=1;align=center;verticalAlign=middle;resizable=0;points=[];" vertex="1" connectable="0" parent="WuIyrmQVyQ9rkiY1ifRZ-13">
          <mxGeometry x="-0.5166" y="-3" relative="1" as="geometry">
            <mxPoint y="187" as="offset" />
          </mxGeometry>
        </mxCell>
        <mxCell id="WuIyrmQVyQ9rkiY1ifRZ-15" value="Dailymotion" style="shape=image;html=1;verticalAlign=top;verticalLabelPosition=bottom;labelBackgroundColor=#ffffff;imageAspect=0;aspect=fixed;image=https://cdn2.iconfinder.com/data/icons/boxicons-logos/24/bxl-dailymotion-128.png" vertex="1" parent="WuIyrmQVyQ9rkiY1ifRZ-1">
          <mxGeometry x="596" y="749.56" width="90" height="90" as="geometry" />
        </mxCell>
        <mxCell id="WuIyrmQVyQ9rkiY1ifRZ-16" value="" style="sketch=0;outlineConnect=0;fontColor=#232F3E;gradientColor=none;fillColor=#2E27AD;strokeColor=none;dashed=0;verticalLabelPosition=bottom;verticalAlign=top;align=center;html=1;fontSize=12;fontStyle=0;aspect=fixed;pointerEvents=1;shape=mxgraph.aws4.rds_mysql_instance;" vertex="1" parent="WuIyrmQVyQ9rkiY1ifRZ-1">
          <mxGeometry x="525.5" y="210" width="59" height="59" as="geometry" />
        </mxCell>
        <mxCell id="WuIyrmQVyQ9rkiY1ifRZ-17" style="edgeStyle=orthogonalEdgeStyle;rounded=0;orthogonalLoop=1;jettySize=auto;html=1;" edge="1" parent="WuIyrmQVyQ9rkiY1ifRZ-1" source="WuIyrmQVyQ9rkiY1ifRZ-20" target="WuIyrmQVyQ9rkiY1ifRZ-39">
          <mxGeometry relative="1" as="geometry">
            <Array as="points">
              <mxPoint x="178.66" y="389" />
              <mxPoint x="178.66" y="444" />
            </Array>
          </mxGeometry>
        </mxCell>
        <mxCell id="WuIyrmQVyQ9rkiY1ifRZ-18" style="edgeStyle=orthogonalEdgeStyle;rounded=0;orthogonalLoop=1;jettySize=auto;html=1;" edge="1" parent="WuIyrmQVyQ9rkiY1ifRZ-1" source="WuIyrmQVyQ9rkiY1ifRZ-20" target="WuIyrmQVyQ9rkiY1ifRZ-28">
          <mxGeometry relative="1" as="geometry" />
        </mxCell>
        <mxCell id="WuIyrmQVyQ9rkiY1ifRZ-19" value="Log" style="edgeLabel;html=1;align=center;verticalAlign=middle;resizable=0;points=[];" vertex="1" connectable="0" parent="WuIyrmQVyQ9rkiY1ifRZ-18">
          <mxGeometry x="0.1281" y="-1" relative="1" as="geometry">
            <mxPoint x="5" y="-1" as="offset" />
          </mxGeometry>
        </mxCell>
        <mxCell id="WuIyrmQVyQ9rkiY1ifRZ-20" value="Temperature and pH&lt;br&gt;sensors" style="sketch=0;outlineConnect=0;fontColor=#232F3E;gradientColor=none;fillColor=#3F8624;strokeColor=none;dashed=0;verticalLabelPosition=bottom;verticalAlign=top;align=center;html=1;fontSize=12;fontStyle=0;aspect=fixed;pointerEvents=1;shape=mxgraph.aws4.iot_thing_temperature_sensor;" vertex="1" parent="WuIyrmQVyQ9rkiY1ifRZ-1">
          <mxGeometry x="224.39000000000001" y="350.05" width="78" height="78" as="geometry" />
        </mxCell>
        <mxCell id="WuIyrmQVyQ9rkiY1ifRZ-21" style="edgeStyle=orthogonalEdgeStyle;rounded=0;orthogonalLoop=1;jettySize=auto;html=1;exitX=1;exitY=0.5;exitDx=0;exitDy=0;exitPerimeter=0;" edge="1" parent="WuIyrmQVyQ9rkiY1ifRZ-1" source="WuIyrmQVyQ9rkiY1ifRZ-24" target="WuIyrmQVyQ9rkiY1ifRZ-27">
          <mxGeometry relative="1" as="geometry" />
        </mxCell>
        <mxCell id="WuIyrmQVyQ9rkiY1ifRZ-22" value="Livestream" style="edgeLabel;html=1;align=center;verticalAlign=middle;resizable=0;points=[];" vertex="1" connectable="0" parent="WuIyrmQVyQ9rkiY1ifRZ-21">
          <mxGeometry x="-0.0053" y="2" relative="1" as="geometry">
            <mxPoint x="21" y="2" as="offset" />
          </mxGeometry>
        </mxCell>
        <mxCell id="WuIyrmQVyQ9rkiY1ifRZ-23" style="edgeStyle=orthogonalEdgeStyle;rounded=0;orthogonalLoop=1;jettySize=auto;html=1;entryX=1;entryY=0.75;entryDx=0;entryDy=0;" edge="1" parent="WuIyrmQVyQ9rkiY1ifRZ-1" source="WuIyrmQVyQ9rkiY1ifRZ-24" target="WuIyrmQVyQ9rkiY1ifRZ-39">
          <mxGeometry relative="1" as="geometry">
            <Array as="points">
              <mxPoint x="180" y="511" />
              <mxPoint x="180" y="461" />
            </Array>
          </mxGeometry>
        </mxCell>
        <mxCell id="WuIyrmQVyQ9rkiY1ifRZ-24" value="Cameras" style="outlineConnect=0;dashed=0;verticalLabelPosition=bottom;verticalAlign=top;align=center;html=1;shape=mxgraph.aws3.camera;fillColor=#5294CF;gradientColor=none;" vertex="1" parent="WuIyrmQVyQ9rkiY1ifRZ-1">
          <mxGeometry x="223.36" y="471" width="79.5" height="79.5" as="geometry" />
        </mxCell>
        <mxCell id="WuIyrmQVyQ9rkiY1ifRZ-25" style="edgeStyle=orthogonalEdgeStyle;rounded=0;orthogonalLoop=1;jettySize=auto;html=1;exitX=0;exitY=0.5;exitDx=0;exitDy=0;exitPerimeter=0;" edge="1" parent="WuIyrmQVyQ9rkiY1ifRZ-1" source="WuIyrmQVyQ9rkiY1ifRZ-26" target="WuIyrmQVyQ9rkiY1ifRZ-39">
          <mxGeometry relative="1" as="geometry">
            <Array as="points">
              <mxPoint x="114" y="250" />
            </Array>
          </mxGeometry>
        </mxCell>
        <mxCell id="WuIyrmQVyQ9rkiY1ifRZ-26" value="Luminosity sensors&lt;br&gt;and controllers" style="outlineConnect=0;dashed=0;verticalLabelPosition=bottom;verticalAlign=top;align=center;html=1;shape=mxgraph.aws3.lightbulb;fillColor=#5294CF;gradientColor=none;" vertex="1" parent="WuIyrmQVyQ9rkiY1ifRZ-1">
          <mxGeometry x="223.36" y="210" width="79.5" height="79.5" as="geometry" />
        </mxCell>
        <mxCell id="WuIyrmQVyQ9rkiY1ifRZ-27" value="WebSocket" style="shape=image;verticalLabelPosition=bottom;labelBackgroundColor=default;verticalAlign=top;aspect=fixed;imageAspect=0;image=https://seeklogo.com/images/W/websocket-logo-91B815D333-seeklogo.com.png;" vertex="1" parent="WuIyrmQVyQ9rkiY1ifRZ-1">
          <mxGeometry x="515" y="480.75" width="80" height="60" as="geometry" />
        </mxCell>
        <mxCell id="WuIyrmQVyQ9rkiY1ifRZ-28" value="REST API" style="sketch=0;pointerEvents=1;shadow=0;dashed=0;html=1;strokeColor=none;fillColor=#DF8C42;labelPosition=center;verticalLabelPosition=bottom;verticalAlign=top;align=center;outlineConnect=0;shape=mxgraph.veeam2.restful_api;" vertex="1" parent="WuIyrmQVyQ9rkiY1ifRZ-1">
          <mxGeometry x="520" y="353.77" width="70" height="70.55" as="geometry" />
        </mxCell>
        <mxCell id="WuIyrmQVyQ9rkiY1ifRZ-29" style="edgeStyle=orthogonalEdgeStyle;rounded=0;orthogonalLoop=1;jettySize=auto;html=1;exitX=1;exitY=0.75;exitDx=0;exitDy=0;entryX=1;entryY=0.5;entryDx=0;entryDy=0;" edge="1" parent="WuIyrmQVyQ9rkiY1ifRZ-1" source="WuIyrmQVyQ9rkiY1ifRZ-27" target="WuIyrmQVyQ9rkiY1ifRZ-34">
          <mxGeometry relative="1" as="geometry">
            <mxPoint x="490" y="770" as="sourcePoint" />
            <Array as="points">
              <mxPoint x="620" y="526" />
              <mxPoint x="620" y="720" />
              <mxPoint x="170" y="720" />
              <mxPoint x="170" y="675" />
            </Array>
          </mxGeometry>
        </mxCell>
        <mxCell id="WuIyrmQVyQ9rkiY1ifRZ-30" value="Camera feed" style="edgeLabel;html=1;align=center;verticalAlign=middle;resizable=0;points=[];" vertex="1" connectable="0" parent="WuIyrmQVyQ9rkiY1ifRZ-29">
          <mxGeometry x="0.0258" relative="1" as="geometry">
            <mxPoint x="-196" as="offset" />
          </mxGeometry>
        </mxCell>
        <mxCell id="WuIyrmQVyQ9rkiY1ifRZ-31" style="edgeStyle=orthogonalEdgeStyle;rounded=0;orthogonalLoop=1;jettySize=auto;html=1;exitX=1;exitY=0.75;exitDx=0;exitDy=0;entryX=0;entryY=0.5;entryDx=0;entryDy=0;" edge="1" parent="WuIyrmQVyQ9rkiY1ifRZ-1" source="WuIyrmQVyQ9rkiY1ifRZ-34" target="WuIyrmQVyQ9rkiY1ifRZ-15">
          <mxGeometry relative="1" as="geometry">
            <Array as="points">
              <mxPoint x="160" y="692" />
              <mxPoint x="160" y="740" />
              <mxPoint x="480" y="740" />
              <mxPoint x="480" y="795" />
            </Array>
          </mxGeometry>
        </mxCell>
        <mxCell id="WuIyrmQVyQ9rkiY1ifRZ-32" value="Recordings upload" style="edgeLabel;html=1;align=center;verticalAlign=middle;resizable=0;points=[];" vertex="1" connectable="0" parent="WuIyrmQVyQ9rkiY1ifRZ-31">
          <mxGeometry x="0.1659" relative="1" as="geometry">
            <mxPoint x="-157" as="offset" />
          </mxGeometry>
        </mxCell>
        <mxCell id="WuIyrmQVyQ9rkiY1ifRZ-33" style="edgeStyle=orthogonalEdgeStyle;rounded=0;orthogonalLoop=1;jettySize=auto;html=1;exitX=0;exitY=0.5;exitDx=0;exitDy=0;entryX=0.08;entryY=0.5;entryDx=0;entryDy=0;entryPerimeter=0;" edge="1" parent="WuIyrmQVyQ9rkiY1ifRZ-1" source="WuIyrmQVyQ9rkiY1ifRZ-34" target="WuIyrmQVyQ9rkiY1ifRZ-38">
          <mxGeometry relative="1" as="geometry">
            <Array as="points">
              <mxPoint x="63" y="675" />
              <mxPoint x="63" y="795" />
            </Array>
          </mxGeometry>
        </mxCell>
        <mxCell id="WuIyrmQVyQ9rkiY1ifRZ-34" value="Worker" style="shape=image;verticalLabelPosition=bottom;labelBackgroundColor=default;verticalAlign=top;aspect=fixed;imageAspect=0;image=https://www.pngkey.com/png/full/353-3538564_hard-hat-icon-png-download-blue-collar-worker.png;" vertex="1" parent="WuIyrmQVyQ9rkiY1ifRZ-1">
          <mxGeometry x="82.76000000000005" y="639.05" width="62" height="71.06" as="geometry" />
        </mxCell>
        <mxCell id="WuIyrmQVyQ9rkiY1ifRZ-35" value="Wi-Fi connected&lt;br&gt;devices" style="text;html=1;align=center;verticalAlign=middle;resizable=0;points=[];autosize=1;strokeColor=none;fillColor=none;" vertex="1" parent="WuIyrmQVyQ9rkiY1ifRZ-1">
          <mxGeometry x="208.11" y="580" width="110" height="40" as="geometry" />
        </mxCell>
        <mxCell id="WuIyrmQVyQ9rkiY1ifRZ-36" value="Wi-Fi Hotspot" style="shape=image;html=1;verticalAlign=top;verticalLabelPosition=bottom;labelBackgroundColor=#ffffff;imageAspect=0;aspect=fixed;image=https://cdn3.iconfinder.com/data/icons/belidong-hotel/32/Artboard_16-128.png" vertex="1" parent="WuIyrmQVyQ9rkiY1ifRZ-1">
          <mxGeometry x="230.73" y="759.28" width="70.55" height="70.55" as="geometry" />
        </mxCell>
        <mxCell id="WuIyrmQVyQ9rkiY1ifRZ-37" style="edgeStyle=orthogonalEdgeStyle;rounded=0;orthogonalLoop=1;jettySize=auto;html=1;exitX=0.92;exitY=0.5;exitDx=0;exitDy=0;exitPerimeter=0;" edge="1" parent="WuIyrmQVyQ9rkiY1ifRZ-1" source="WuIyrmQVyQ9rkiY1ifRZ-38" target="WuIyrmQVyQ9rkiY1ifRZ-36">
          <mxGeometry relative="1" as="geometry" />
        </mxCell>
        <mxCell id="WuIyrmQVyQ9rkiY1ifRZ-38" value="Laptop" style="verticalLabelPosition=bottom;html=1;verticalAlign=top;align=center;strokeColor=none;fillColor=#00BEF2;shape=mxgraph.azure.laptop;pointerEvents=1;" vertex="1" parent="WuIyrmQVyQ9rkiY1ifRZ-1">
          <mxGeometry x="73.32000000000001" y="766.92" width="80.89" height="55.28" as="geometry" />
        </mxCell>
        <mxCell id="WuIyrmQVyQ9rkiY1ifRZ-39" value="Aquariums" style="shape=image;verticalLabelPosition=bottom;labelBackgroundColor=default;verticalAlign=top;aspect=fixed;imageAspect=0;image=https://cdn-icons-png.flaticon.com/512/90/90857.png;" vertex="1" parent="WuIyrmQVyQ9rkiY1ifRZ-1">
          <mxGeometry x="73.32" y="398.34" width="82.41" height="82.41" as="geometry" />
        </mxCell>
        <mxCell id="WuIyrmQVyQ9rkiY1ifRZ-40" value="Laboratory" style="text;html=1;align=center;verticalAlign=middle;resizable=0;points=[];autosize=1;strokeColor=none;fillColor=none;" vertex="1" parent="WuIyrmQVyQ9rkiY1ifRZ-1">
          <mxGeometry x="188.66" y="880" width="80" height="30" as="geometry" />
        </mxCell>
        <mxCell id="WuIyrmQVyQ9rkiY1ifRZ-41" value="Web service" style="text;html=1;align=center;verticalAlign=middle;resizable=0;points=[];autosize=1;strokeColor=none;fillColor=none;" vertex="1" parent="WuIyrmQVyQ9rkiY1ifRZ-1">
          <mxGeometry x="510" y="580" width="90" height="30" as="geometry" />
        </mxCell>
        <mxCell id="WuIyrmQVyQ9rkiY1ifRZ-42" value="" style="endArrow=classic;startArrow=classic;html=1;rounded=0;" edge="1" parent="WuIyrmQVyQ9rkiY1ifRZ-1" source="WuIyrmQVyQ9rkiY1ifRZ-28" target="WuIyrmQVyQ9rkiY1ifRZ-16">
          <mxGeometry width="50" height="50" relative="1" as="geometry">
            <mxPoint x="690" y="350" as="sourcePoint" />
            <mxPoint x="740" y="300" as="targetPoint" />
          </mxGeometry>
        </mxCell>
        <mxCell id="WuIyrmQVyQ9rkiY1ifRZ-43" value="Database" style="text;html=1;align=center;verticalAlign=middle;resizable=0;points=[];autosize=1;strokeColor=none;fillColor=none;" vertex="1" parent="WuIyrmQVyQ9rkiY1ifRZ-1">
          <mxGeometry x="520" y="180" width="70" height="30" as="geometry" />
        </mxCell>
        <mxCell id="WuIyrmQVyQ9rkiY1ifRZ-44" value="Cloud" style="text;html=1;align=center;verticalAlign=middle;resizable=0;points=[];autosize=1;strokeColor=none;fillColor=none;" vertex="1" parent="WuIyrmQVyQ9rkiY1ifRZ-1">
          <mxGeometry x="615" y="139.05" width="50" height="30" as="geometry" />
        </mxCell>
        <mxCell id="WuIyrmQVyQ9rkiY1ifRZ-45" value="External service" style="text;html=1;align=center;verticalAlign=middle;resizable=0;points=[];autosize=1;strokeColor=none;fillColor=none;" vertex="1" parent="WuIyrmQVyQ9rkiY1ifRZ-1">
          <mxGeometry x="586" y="880" width="110" height="30" as="geometry" />
        </mxCell>
        <mxCell id="WuIyrmQVyQ9rkiY1ifRZ-46" value="" style="endArrow=classic;startArrow=classic;html=1;rounded=0;" edge="1" parent="WuIyrmQVyQ9rkiY1ifRZ-1">
          <mxGeometry width="50" height="50" relative="1" as="geometry">
            <mxPoint x="590" y="388.14" as="sourcePoint" />
            <mxPoint x="690" y="388" as="targetPoint" />
          </mxGeometry>
        </mxCell>
        <mxCell id="WuIyrmQVyQ9rkiY1ifRZ-47" value="HTTP" style="edgeLabel;html=1;align=center;verticalAlign=middle;resizable=0;points=[];" vertex="1" connectable="0" parent="WuIyrmQVyQ9rkiY1ifRZ-46">
          <mxGeometry x="-0.1593" relative="1" as="geometry">
            <mxPoint x="9" y="1" as="offset" />
          </mxGeometry>
        </mxCell>
        <mxCell id="BrJOlLW2vVz8gPNd1whd-0" value="Arduino UNO, ESP32&lt;br style=&quot;border-color: var(--border-color);&quot;&gt;and ESP32-CAM devices" style="text;html=1;align=center;verticalAlign=middle;resizable=0;points=[];autosize=1;strokeColor=none;fillColor=none;" vertex="1" parent="WuIyrmQVyQ9rkiY1ifRZ-1">
          <mxGeometry x="184.03" y="630" width="160" height="40" as="geometry" />
        </mxCell>
      </root>
    </mxGraphModel>
  </diagram>
  <diagram name="Português" id="byU7topS99mr_FfxvGcA">
    <mxGraphModel dx="1434" dy="760" grid="1" gridSize="10" guides="1" tooltips="1" connect="1" arrows="1" fold="1" page="1" pageScale="1" pageWidth="850" pageHeight="1100" math="0" shadow="0">
      <root>
        <mxCell id="0" />
        <mxCell id="1" parent="0" />
        <mxCell id="9bzy8EOZ3xym4p1rz7Lv-84" value="" style="rounded=0;whiteSpace=wrap;html=1;" parent="1" vertex="1">
          <mxGeometry x="571" y="740" width="140" height="140" as="geometry" />
        </mxCell>
        <mxCell id="9bzy8EOZ3xym4p1rz7Lv-82" value="" style="rounded=0;whiteSpace=wrap;html=1;" parent="1" vertex="1">
          <mxGeometry x="482" y="169.05" width="318" height="450.95" as="geometry" />
        </mxCell>
        <mxCell id="9bzy8EOZ3xym4p1rz7Lv-57" value="" style="rounded=0;whiteSpace=wrap;html=1;direction=south;" parent="1" vertex="1">
          <mxGeometry x="500" y="330" width="110" height="248.04" as="geometry" />
        </mxCell>
        <mxCell id="9bzy8EOZ3xym4p1rz7Lv-54" value="" style="rounded=0;whiteSpace=wrap;html=1;direction=south;" parent="1" vertex="1">
          <mxGeometry x="50" y="180" width="330" height="700" as="geometry" />
        </mxCell>
        <mxCell id="9bzy8EOZ3xym4p1rz7Lv-37" value="" style="rounded=0;whiteSpace=wrap;html=1;rotation=-90;" parent="1" vertex="1">
          <mxGeometry x="50" y="338.14" width="428.05" height="150.75" as="geometry" />
        </mxCell>
        <mxCell id="9bzy8EOZ3xym4p1rz7Lv-101" style="edgeStyle=orthogonalEdgeStyle;rounded=0;orthogonalLoop=1;jettySize=auto;html=1;entryX=1;entryY=0.5;entryDx=0;entryDy=0;exitX=0.5;exitY=1;exitDx=0;exitDy=0;" parent="1" source="9bzy8EOZ3xym4p1rz7Lv-14" target="9bzy8EOZ3xym4p1rz7Lv-32" edge="1">
          <mxGeometry relative="1" as="geometry">
            <Array as="points">
              <mxPoint x="328" y="460" />
              <mxPoint x="360" y="460" />
              <mxPoint x="360" y="795" />
            </Array>
          </mxGeometry>
        </mxCell>
        <mxCell id="9bzy8EOZ3xym4p1rz7Lv-14" value="" style="rounded=0;whiteSpace=wrap;html=1;rotation=-90;" parent="1" vertex="1">
          <mxGeometry x="142.73" y="394.88" width="243.43" height="126.48" as="geometry" />
        </mxCell>
        <mxCell id="9bzy8EOZ3xym4p1rz7Lv-93" style="edgeStyle=orthogonalEdgeStyle;rounded=0;orthogonalLoop=1;jettySize=auto;html=1;exitX=1;exitY=0.5;exitDx=0;exitDy=0;" parent="1" source="9bzy8EOZ3xym4p1rz7Lv-24" target="9bzy8EOZ3xym4p1rz7Lv-5" edge="1">
          <mxGeometry relative="1" as="geometry">
            <Array as="points">
              <mxPoint x="642" y="511" />
              <mxPoint x="642" y="400" />
            </Array>
          </mxGeometry>
        </mxCell>
        <mxCell id="9bzy8EOZ3xym4p1rz7Lv-95" value="Feed&lt;br&gt;das&lt;br&gt;câmeras" style="edgeLabel;html=1;align=center;verticalAlign=middle;resizable=0;points=[];" parent="9bzy8EOZ3xym4p1rz7Lv-93" vertex="1" connectable="0">
          <mxGeometry x="0.0756" y="-2" relative="1" as="geometry">
            <mxPoint as="offset" />
          </mxGeometry>
        </mxCell>
        <mxCell id="9bzy8EOZ3xym4p1rz7Lv-5" value="Website" style="sketch=0;html=1;aspect=fixed;strokeColor=none;shadow=0;fillColor=#3B8DF1;verticalAlign=top;labelPosition=center;verticalLabelPosition=bottom;shape=mxgraph.gcp2.website" parent="1" vertex="1">
          <mxGeometry x="690" y="356.05000000000007" width="74.23" height="72" as="geometry" />
        </mxCell>
        <mxCell id="9bzy8EOZ3xym4p1rz7Lv-109" style="edgeStyle=orthogonalEdgeStyle;rounded=0;orthogonalLoop=1;jettySize=auto;html=1;exitX=0.93;exitY=0.444;exitDx=0;exitDy=0;entryX=1;entryY=0.5;entryDx=0;entryDy=0;exitPerimeter=0;" parent="1" source="9bzy8EOZ3xym4p1rz7Lv-5" target="9bzy8EOZ3xym4p1rz7Lv-6" edge="1">
          <mxGeometry relative="1" as="geometry">
            <Array as="points">
              <mxPoint x="780" y="388" />
              <mxPoint x="780" y="795" />
            </Array>
          </mxGeometry>
        </mxCell>
        <mxCell id="9bzy8EOZ3xym4p1rz7Lv-112" value="Acesso&lt;br&gt;às&lt;br&gt;gravações" style="edgeLabel;html=1;align=center;verticalAlign=middle;resizable=0;points=[];" parent="9bzy8EOZ3xym4p1rz7Lv-109" vertex="1" connectable="0">
          <mxGeometry x="-0.5166" y="-3" relative="1" as="geometry">
            <mxPoint y="187" as="offset" />
          </mxGeometry>
        </mxCell>
        <mxCell id="9bzy8EOZ3xym4p1rz7Lv-6" value="Dailymotion" style="shape=image;html=1;verticalAlign=top;verticalLabelPosition=bottom;labelBackgroundColor=#ffffff;imageAspect=0;aspect=fixed;image=https://cdn2.iconfinder.com/data/icons/boxicons-logos/24/bxl-dailymotion-128.png" parent="1" vertex="1">
          <mxGeometry x="596" y="749.56" width="90" height="90" as="geometry" />
        </mxCell>
        <mxCell id="9bzy8EOZ3xym4p1rz7Lv-8" value="" style="sketch=0;outlineConnect=0;fontColor=#232F3E;gradientColor=none;fillColor=#2E27AD;strokeColor=none;dashed=0;verticalLabelPosition=bottom;verticalAlign=top;align=center;html=1;fontSize=12;fontStyle=0;aspect=fixed;pointerEvents=1;shape=mxgraph.aws4.rds_mysql_instance;" parent="1" vertex="1">
          <mxGeometry x="525.5" y="210" width="59" height="59" as="geometry" />
        </mxCell>
        <mxCell id="9bzy8EOZ3xym4p1rz7Lv-46" style="edgeStyle=orthogonalEdgeStyle;rounded=0;orthogonalLoop=1;jettySize=auto;html=1;" parent="1" source="9bzy8EOZ3xym4p1rz7Lv-10" target="9bzy8EOZ3xym4p1rz7Lv-44" edge="1">
          <mxGeometry relative="1" as="geometry">
            <Array as="points">
              <mxPoint x="178.66" y="389" />
              <mxPoint x="178.66" y="444" />
            </Array>
          </mxGeometry>
        </mxCell>
        <mxCell id="9bzy8EOZ3xym4p1rz7Lv-68" style="edgeStyle=orthogonalEdgeStyle;rounded=0;orthogonalLoop=1;jettySize=auto;html=1;" parent="1" source="9bzy8EOZ3xym4p1rz7Lv-10" target="9bzy8EOZ3xym4p1rz7Lv-26" edge="1">
          <mxGeometry relative="1" as="geometry" />
        </mxCell>
        <mxCell id="9bzy8EOZ3xym4p1rz7Lv-106" value="Registro&lt;br&gt;dos dados" style="edgeLabel;html=1;align=center;verticalAlign=middle;resizable=0;points=[];" parent="9bzy8EOZ3xym4p1rz7Lv-68" vertex="1" connectable="0">
          <mxGeometry x="0.1281" y="-1" relative="1" as="geometry">
            <mxPoint x="5" y="-1" as="offset" />
          </mxGeometry>
        </mxCell>
        <mxCell id="9bzy8EOZ3xym4p1rz7Lv-10" value="Sensores de&lt;br&gt;temperatura e pH" style="sketch=0;outlineConnect=0;fontColor=#232F3E;gradientColor=none;fillColor=#3F8624;strokeColor=none;dashed=0;verticalLabelPosition=bottom;verticalAlign=top;align=center;html=1;fontSize=12;fontStyle=0;aspect=fixed;pointerEvents=1;shape=mxgraph.aws4.iot_thing_temperature_sensor;" parent="1" vertex="1">
          <mxGeometry x="224.39000000000001" y="350.05" width="78" height="78" as="geometry" />
        </mxCell>
        <mxCell id="9bzy8EOZ3xym4p1rz7Lv-69" style="edgeStyle=orthogonalEdgeStyle;rounded=0;orthogonalLoop=1;jettySize=auto;html=1;exitX=1;exitY=0.5;exitDx=0;exitDy=0;exitPerimeter=0;" parent="1" source="9bzy8EOZ3xym4p1rz7Lv-17" target="9bzy8EOZ3xym4p1rz7Lv-24" edge="1">
          <mxGeometry relative="1" as="geometry" />
        </mxCell>
        <mxCell id="9bzy8EOZ3xym4p1rz7Lv-94" value="Transmissão&lt;br&gt;ao vivo" style="edgeLabel;html=1;align=center;verticalAlign=middle;resizable=0;points=[];" parent="9bzy8EOZ3xym4p1rz7Lv-69" vertex="1" connectable="0">
          <mxGeometry x="-0.0053" y="2" relative="1" as="geometry">
            <mxPoint x="21" y="2" as="offset" />
          </mxGeometry>
        </mxCell>
        <mxCell id="9bzy8EOZ3xym4p1rz7Lv-108" style="edgeStyle=orthogonalEdgeStyle;rounded=0;orthogonalLoop=1;jettySize=auto;html=1;entryX=1;entryY=0.75;entryDx=0;entryDy=0;" parent="1" source="9bzy8EOZ3xym4p1rz7Lv-17" target="9bzy8EOZ3xym4p1rz7Lv-44" edge="1">
          <mxGeometry relative="1" as="geometry">
            <Array as="points">
              <mxPoint x="180" y="511" />
              <mxPoint x="180" y="461" />
            </Array>
          </mxGeometry>
        </mxCell>
        <mxCell id="9bzy8EOZ3xym4p1rz7Lv-17" value="Câmeras" style="outlineConnect=0;dashed=0;verticalLabelPosition=bottom;verticalAlign=top;align=center;html=1;shape=mxgraph.aws3.camera;fillColor=#5294CF;gradientColor=none;" parent="1" vertex="1">
          <mxGeometry x="223.36" y="471" width="79.5" height="79.5" as="geometry" />
        </mxCell>
        <mxCell id="9bzy8EOZ3xym4p1rz7Lv-45" style="edgeStyle=orthogonalEdgeStyle;rounded=0;orthogonalLoop=1;jettySize=auto;html=1;exitX=0;exitY=0.5;exitDx=0;exitDy=0;exitPerimeter=0;" parent="1" source="9bzy8EOZ3xym4p1rz7Lv-18" target="9bzy8EOZ3xym4p1rz7Lv-44" edge="1">
          <mxGeometry relative="1" as="geometry">
            <Array as="points">
              <mxPoint x="114" y="250" />
            </Array>
          </mxGeometry>
        </mxCell>
        <mxCell id="9bzy8EOZ3xym4p1rz7Lv-18" value="Sensores e controladores&lt;br&gt;de luminosidade" style="outlineConnect=0;dashed=0;verticalLabelPosition=bottom;verticalAlign=top;align=center;html=1;shape=mxgraph.aws3.lightbulb;fillColor=#5294CF;gradientColor=none;" parent="1" vertex="1">
          <mxGeometry x="223.36" y="210" width="79.5" height="79.5" as="geometry" />
        </mxCell>
        <mxCell id="9bzy8EOZ3xym4p1rz7Lv-24" value="WebSocket" style="shape=image;verticalLabelPosition=bottom;labelBackgroundColor=default;verticalAlign=top;aspect=fixed;imageAspect=0;image=https://seeklogo.com/images/W/websocket-logo-91B815D333-seeklogo.com.png;" parent="1" vertex="1">
          <mxGeometry x="515" y="480.75" width="80" height="60" as="geometry" />
        </mxCell>
        <mxCell id="9bzy8EOZ3xym4p1rz7Lv-26" value="API REST" style="sketch=0;pointerEvents=1;shadow=0;dashed=0;html=1;strokeColor=none;fillColor=#DF8C42;labelPosition=center;verticalLabelPosition=bottom;verticalAlign=top;align=center;outlineConnect=0;shape=mxgraph.veeam2.restful_api;" parent="1" vertex="1">
          <mxGeometry x="520" y="353.77" width="70" height="70.55" as="geometry" />
        </mxCell>
        <mxCell id="9bzy8EOZ3xym4p1rz7Lv-90" style="edgeStyle=orthogonalEdgeStyle;rounded=0;orthogonalLoop=1;jettySize=auto;html=1;exitX=1;exitY=0.75;exitDx=0;exitDy=0;entryX=1;entryY=0.5;entryDx=0;entryDy=0;" parent="1" source="9bzy8EOZ3xym4p1rz7Lv-24" target="9bzy8EOZ3xym4p1rz7Lv-29" edge="1">
          <mxGeometry relative="1" as="geometry">
            <mxPoint x="490" y="770" as="sourcePoint" />
            <Array as="points">
              <mxPoint x="620" y="526" />
              <mxPoint x="620" y="720" />
              <mxPoint x="170" y="720" />
              <mxPoint x="170" y="675" />
            </Array>
          </mxGeometry>
        </mxCell>
        <mxCell id="9bzy8EOZ3xym4p1rz7Lv-103" value="Feed das câmeras" style="edgeLabel;html=1;align=center;verticalAlign=middle;resizable=0;points=[];" parent="9bzy8EOZ3xym4p1rz7Lv-90" vertex="1" connectable="0">
          <mxGeometry x="0.0258" relative="1" as="geometry">
            <mxPoint x="-192" as="offset" />
          </mxGeometry>
        </mxCell>
        <mxCell id="9bzy8EOZ3xym4p1rz7Lv-97" style="edgeStyle=orthogonalEdgeStyle;rounded=0;orthogonalLoop=1;jettySize=auto;html=1;exitX=1;exitY=0.75;exitDx=0;exitDy=0;entryX=0;entryY=0.5;entryDx=0;entryDy=0;" parent="1" source="9bzy8EOZ3xym4p1rz7Lv-29" target="9bzy8EOZ3xym4p1rz7Lv-6" edge="1">
          <mxGeometry relative="1" as="geometry">
            <Array as="points">
              <mxPoint x="160" y="692" />
              <mxPoint x="160" y="740" />
              <mxPoint x="480" y="740" />
              <mxPoint x="480" y="795" />
            </Array>
          </mxGeometry>
        </mxCell>
        <mxCell id="9bzy8EOZ3xym4p1rz7Lv-104" value="Upload das gravações" style="edgeLabel;html=1;align=center;verticalAlign=middle;resizable=0;points=[];" parent="9bzy8EOZ3xym4p1rz7Lv-97" vertex="1" connectable="0">
          <mxGeometry x="0.1659" relative="1" as="geometry">
            <mxPoint x="-151" as="offset" />
          </mxGeometry>
        </mxCell>
        <mxCell id="9bzy8EOZ3xym4p1rz7Lv-107" style="edgeStyle=orthogonalEdgeStyle;rounded=0;orthogonalLoop=1;jettySize=auto;html=1;exitX=0;exitY=0.5;exitDx=0;exitDy=0;entryX=0.08;entryY=0.5;entryDx=0;entryDy=0;entryPerimeter=0;" parent="1" source="9bzy8EOZ3xym4p1rz7Lv-29" target="9bzy8EOZ3xym4p1rz7Lv-35" edge="1">
          <mxGeometry relative="1" as="geometry">
            <Array as="points">
              <mxPoint x="63" y="675" />
              <mxPoint x="63" y="795" />
            </Array>
          </mxGeometry>
        </mxCell>
        <mxCell id="9bzy8EOZ3xym4p1rz7Lv-31" value="Dispositivos&lt;br&gt;conectados ao Wi-Fi" style="text;html=1;align=center;verticalAlign=middle;resizable=0;points=[];autosize=1;strokeColor=none;fillColor=none;" parent="1" vertex="1">
          <mxGeometry x="198.11" y="580" width="130" height="40" as="geometry" />
        </mxCell>
        <mxCell id="9bzy8EOZ3xym4p1rz7Lv-32" value="Wi-Fi Hotspot" style="shape=image;html=1;verticalAlign=top;verticalLabelPosition=bottom;labelBackgroundColor=#ffffff;imageAspect=0;aspect=fixed;image=https://cdn3.iconfinder.com/data/icons/belidong-hotel/32/Artboard_16-128.png" parent="1" vertex="1">
          <mxGeometry x="230.73" y="759.28" width="70.55" height="70.55" as="geometry" />
        </mxCell>
        <mxCell id="9bzy8EOZ3xym4p1rz7Lv-36" style="edgeStyle=orthogonalEdgeStyle;rounded=0;orthogonalLoop=1;jettySize=auto;html=1;exitX=0.92;exitY=0.5;exitDx=0;exitDy=0;exitPerimeter=0;" parent="1" source="9bzy8EOZ3xym4p1rz7Lv-35" target="9bzy8EOZ3xym4p1rz7Lv-32" edge="1">
          <mxGeometry relative="1" as="geometry" />
        </mxCell>
        <mxCell id="9bzy8EOZ3xym4p1rz7Lv-44" value="Aquários" style="shape=image;verticalLabelPosition=bottom;labelBackgroundColor=default;verticalAlign=top;aspect=fixed;imageAspect=0;image=https://cdn-icons-png.flaticon.com/512/90/90857.png;" parent="1" vertex="1">
          <mxGeometry x="73.32" y="398.34" width="82.41" height="82.41" as="geometry" />
        </mxCell>
        <mxCell id="9bzy8EOZ3xym4p1rz7Lv-56" value="Laboratório" style="text;html=1;align=center;verticalAlign=middle;resizable=0;points=[];autosize=1;strokeColor=none;fillColor=none;" parent="1" vertex="1">
          <mxGeometry x="188.66" y="880" width="80" height="30" as="geometry" />
        </mxCell>
        <mxCell id="9bzy8EOZ3xym4p1rz7Lv-58" value="Serviço web" style="text;html=1;align=center;verticalAlign=middle;resizable=0;points=[];autosize=1;strokeColor=none;fillColor=none;" parent="1" vertex="1">
          <mxGeometry x="510" y="580" width="90" height="30" as="geometry" />
        </mxCell>
        <mxCell id="9bzy8EOZ3xym4p1rz7Lv-79" value="" style="endArrow=classic;startArrow=classic;html=1;rounded=0;" parent="1" source="9bzy8EOZ3xym4p1rz7Lv-26" target="9bzy8EOZ3xym4p1rz7Lv-8" edge="1">
          <mxGeometry width="50" height="50" relative="1" as="geometry">
            <mxPoint x="690" y="350" as="sourcePoint" />
            <mxPoint x="740" y="300" as="targetPoint" />
          </mxGeometry>
        </mxCell>
        <mxCell id="9bzy8EOZ3xym4p1rz7Lv-80" value="Banco de Dados" style="text;html=1;align=center;verticalAlign=middle;resizable=0;points=[];autosize=1;strokeColor=none;fillColor=none;" parent="1" vertex="1">
          <mxGeometry x="500" y="180" width="110" height="30" as="geometry" />
        </mxCell>
        <mxCell id="9bzy8EOZ3xym4p1rz7Lv-83" value="Nuvem" style="text;html=1;align=center;verticalAlign=middle;resizable=0;points=[];autosize=1;strokeColor=none;fillColor=none;" parent="1" vertex="1">
          <mxGeometry x="610" y="139.05" width="60" height="30" as="geometry" />
        </mxCell>
        <mxCell id="9bzy8EOZ3xym4p1rz7Lv-85" value="Serviço externo" style="text;html=1;align=center;verticalAlign=middle;resizable=0;points=[];autosize=1;strokeColor=none;fillColor=none;" parent="1" vertex="1">
          <mxGeometry x="586" y="880" width="110" height="30" as="geometry" />
        </mxCell>
        <mxCell id="9bzy8EOZ3xym4p1rz7Lv-110" value="" style="endArrow=classic;startArrow=classic;html=1;rounded=0;" parent="1" edge="1">
          <mxGeometry width="50" height="50" relative="1" as="geometry">
            <mxPoint x="590" y="388.14" as="sourcePoint" />
            <mxPoint x="690" y="388" as="targetPoint" />
          </mxGeometry>
        </mxCell>
        <mxCell id="9bzy8EOZ3xym4p1rz7Lv-111" value="HTTP" style="edgeLabel;html=1;align=center;verticalAlign=middle;resizable=0;points=[];" parent="9bzy8EOZ3xym4p1rz7Lv-110" vertex="1" connectable="0">
          <mxGeometry x="-0.1593" relative="1" as="geometry">
            <mxPoint x="9" y="1" as="offset" />
          </mxGeometry>
        </mxCell>
        <mxCell id="mgqe8w8JpylWEjAE40u9-1" value="Dispositivos Arduino UNO,&lt;br&gt;ESP32 e ESP32-CAM" style="text;html=1;align=center;verticalAlign=middle;resizable=0;points=[];autosize=1;strokeColor=none;fillColor=none;" vertex="1" parent="1">
          <mxGeometry x="186.01" y="625" width="160" height="40" as="geometry" />
        </mxCell>
        <mxCell id="9bzy8EOZ3xym4p1rz7Lv-29" value="Worker" style="shape=image;verticalLabelPosition=bottom;labelBackgroundColor=default;verticalAlign=top;aspect=fixed;imageAspect=0;image=https://www.pngkey.com/png/full/353-3538564_hard-hat-icon-png-download-blue-collar-worker.png;" parent="1" vertex="1">
          <mxGeometry x="84.28000000000004" y="639.05" width="62" height="71.06" as="geometry" />
        </mxCell>
        <mxCell id="9bzy8EOZ3xym4p1rz7Lv-35" value="Laptop" style="verticalLabelPosition=bottom;html=1;verticalAlign=top;align=center;strokeColor=none;fillColor=#00BEF2;shape=mxgraph.azure.laptop;pointerEvents=1;" parent="1" vertex="1">
          <mxGeometry x="74.84" y="766.92" width="80.89" height="55.28" as="geometry" />
        </mxCell>
      </root>
    </mxGraphModel>
  </diagram>
</mxfile>
